<?xml version="1.0" encoding="UTF-8" standalone="no"?>
<!DOCTYPE svg PUBLIC "-//W3C//DTD SVG 1.1//EN"
 "http://www.w3.org/Graphics/SVG/1.1/DTD/svg11.dtd">
<!-- Generated by graphviz version 7.0.0 (20221023.0053)
 -->
<!-- Title: G Pages: 1 -->
<svg width="858pt" height="1153pt"
 viewBox="0.00 0.00 857.57 1152.99" xmlns="http://www.w3.org/2000/svg" xmlns:xlink="http://www.w3.org/1999/xlink">
<g id="graph0" class="graph" transform="scale(1 1) rotate(0) translate(4 1148.99)">
<title>G</title><style>.edge>path:hover{stroke-width:8}</style>
<polygon fill="white" stroke="none" points="-4,4 -4,-1148.99 853.57,-1148.99 853.57,4 -4,4"/>
<!-- glycosylator -->
<g id="node1" class="node">
<title>glycosylator</title><style>.edge>path:hover{stroke-width:8}</style>
<ellipse fill="#d10505" stroke="black" cx="200.93" cy="-230.62" rx="40.74" ry="18"/>
<text text-anchor="middle" x="200.93" y="-228.12" font-family="Helvetica,sans-Serif" font-size="10.00" fill="#ffffff">glycosylator</text>
</g>
<!-- glycosylator_drawer -->
<g id="node2" class="node">
<title>glycosylator_drawer</title><style>.edge>path:hover{stroke-width:8}</style>
<ellipse fill="#9f5656" stroke="black" cx="503.93" cy="-583.22" rx="50.41" ry="21.43"/>
<text text-anchor="middle" x="503.93" y="-586.22" font-family="Helvetica,sans-Serif" font-size="10.00" fill="#ffffff">glycosylator.</text>
<text text-anchor="middle" x="503.93" y="-575.22" font-family="Helvetica,sans-Serif" font-size="10.00" fill="#ffffff">drawer</text>
</g>
<!-- glycosylator_force_fields -->
<g id="node3" class="node">
<title>glycosylator_force_fields</title><style>.edge>path:hover{stroke-width:8}</style>
<ellipse fill="#df0b0b" stroke="black" cx="193.93" cy="-1123.78" rx="50.41" ry="21.43"/>
<text text-anchor="middle" x="193.93" y="-1126.78" font-family="Helvetica,sans-Serif" font-size="10.00" fill="#ffffff">glycosylator.</text>
<text text-anchor="middle" x="193.93" y="-1115.78" font-family="Helvetica,sans-Serif" font-size="10.00" fill="#ffffff">force_fields</text>
</g>
<!-- glycosylator_force_fields&#45;&gt;glycosylator -->
<g id="edge1" class="edge">
<title>glycosylator_force_fields&#45;&gt;glycosylator</title><style>.edge>path:hover{stroke-width:8}</style>
<path fill="none" stroke="black" d="M153.93,-668.42C132.23,-592.26 153.93,-569.43 153.93,-490.24 153.93,-490.24 153.93,-490.24 153.93,-394.25 153.93,-346.21 157.85,-333.45 172.93,-287.84 176.23,-277.87 181.01,-267.44 185.69,-258.32"/>
<polygon fill="#df0b0b" stroke="black" points="188.7,-260.11 190.33,-249.64 182.53,-256.81 188.7,-260.11"/>
</g>
<!-- glycosylator_glycosylator -->
<g id="node9" class="node">
<title>glycosylator_glycosylator</title><style>.edge>path:hover{stroke-width:8}</style>
<ellipse fill="#7e4444" stroke="black" cx="586.93" cy="-21.21" rx="50.41" ry="21.43"/>
<text text-anchor="middle" x="586.93" y="-24.21" font-family="Helvetica,sans-Serif" font-size="10.00" fill="#ffffff">glycosylator.</text>
<text text-anchor="middle" x="586.93" y="-13.21" font-family="Helvetica,sans-Serif" font-size="10.00" fill="#ffffff">glycosylator</text>
</g>
<!-- glycosylator_force_fields&#45;&gt;glycosylator_glycosylator -->
<g id="edge2" class="edge">
<title>glycosylator_force_fields&#45;&gt;glycosylator_glycosylator</title><style>.edge>path:hover{stroke-width:8}</style>
<path fill="none" stroke="black" d="M243.77,-1119.7C394.62,-1109.04 835.93,-1067.35 835.93,-944.59 835.93,-944.59 835.93,-944.59 835.93,-394.25 835.93,-321.97 865.02,-297.79 835.93,-231.62"/>
</g>
<!-- glycosylator_molecule_builder -->
<g id="node15" class="node">
<title>glycosylator_molecule_builder</title><style>.edge>path:hover{stroke-width:8}</style>
<ellipse fill="#a44646" stroke="black" cx="62.93" cy="-583.22" rx="62.87" ry="21.43"/>
<text text-anchor="middle" x="62.93" y="-586.22" font-family="Helvetica,sans-Serif" font-size="10.00" fill="#ffffff">glycosylator.</text>
<text text-anchor="middle" x="62.93" y="-575.22" font-family="Helvetica,sans-Serif" font-size="10.00" fill="#ffffff">molecule_builder</text>
</g>
<!-- glycosylator_force_fields&#45;&gt;glycosylator_molecule_builder -->
<g id="edge3" class="edge">
<title>glycosylator_force_fields&#45;&gt;glycosylator_molecule_builder</title><style>.edge>path:hover{stroke-width:8}</style>
<path fill="none" stroke="black" d="M153.93,-668.42C147.59,-642.81 126.45,-622.42 106.15,-608.12"/>
<polygon fill="#df0b0b" stroke="black" points="108.15,-605.25 97.89,-602.63 104.28,-611.08 108.15,-605.25"/>
<path fill="none" stroke="black" d="M186.22,-1102.27C174.6,-1069.46 153.93,-1002.93 153.93,-944.59 153.93,-944.59 153.93,-944.59 153.93,-848.61 153.93,-769.42 172.97,-747.29 153.93,-670.42"/>
</g>
<!-- glycosylator_utils_defaults -->
<g id="node23" class="node">
<title>glycosylator_utils_defaults</title><style>.edge>path:hover{stroke-width:8}</style>
<ellipse fill="#ac2b2b" stroke="black" cx="506.93" cy="-943.59" rx="50.41" ry="28.98"/>
<text text-anchor="middle" x="506.93" y="-952.09" font-family="Helvetica,sans-Serif" font-size="10.00" fill="#ffffff">glycosylator.</text>
<text text-anchor="middle" x="506.93" y="-941.09" font-family="Helvetica,sans-Serif" font-size="10.00" fill="#ffffff">utils.</text>
<text text-anchor="middle" x="506.93" y="-930.09" font-family="Helvetica,sans-Serif" font-size="10.00" fill="#ffffff">defaults</text>
</g>
<!-- glycosylator_force_fields&#45;&gt;glycosylator_utils_defaults -->
<g id="edge4" class="edge">
<title>glycosylator_force_fields&#45;&gt;glycosylator_utils_defaults</title><style>.edge>path:hover{stroke-width:8}</style>
<path fill="none" stroke="black" d="M223.38,-1106.02C278.27,-1074.77 396.55,-1007.43 461.66,-970.36"/>
<polygon fill="#df0b0b" stroke="black" points="463.37,-973.42 470.33,-965.43 459.9,-967.34 463.37,-973.42"/>
</g>
<!-- glycosylator_force_fields_charmm -->
<g id="node4" class="node">
<title>glycosylator_force_fields_charmm</title><style>.edge>path:hover{stroke-width:8}</style>
<ellipse fill="#a83838" stroke="black" cx="231.93" cy="-489.24" rx="50.41" ry="28.98"/>
<text text-anchor="middle" x="231.93" y="-497.74" font-family="Helvetica,sans-Serif" font-size="10.00" fill="#ffffff">glycosylator.</text>
<text text-anchor="middle" x="231.93" y="-486.74" font-family="Helvetica,sans-Serif" font-size="10.00" fill="#ffffff">force_fields.</text>
<text text-anchor="middle" x="231.93" y="-475.74" font-family="Helvetica,sans-Serif" font-size="10.00" fill="#ffffff">charmm</text>
</g>
<!-- glycosylator_force_fields_charmm&#45;&gt;glycosylator_force_fields -->
<g id="edge5" class="edge">
<title>glycosylator_force_fields_charmm&#45;&gt;glycosylator_force_fields</title><style>.edge>path:hover{stroke-width:8}</style>
<path fill="none" stroke="black" d="M222.25,-517.93C210.99,-552.64 193.93,-614.18 193.93,-668.42 193.93,-944.59 193.93,-944.59 193.93,-944.59 193.93,-995.73 193.93,-1055.13 193.93,-1090.79"/>
<polygon fill="#a83838" stroke="black" points="190.43,-1090.42 193.93,-1100.42 197.43,-1090.42 190.43,-1090.42"/>
</g>
<!-- glycosylator_force_fields_glycan_topology -->
<g id="node5" class="node">
<title>glycosylator_force_fields_glycan_topology</title><style>.edge>path:hover{stroke-width:8}</style>
<ellipse fill="#ac4949" stroke="black" cx="586.93" cy="-144.42" rx="61.54" ry="28.98"/>
<text text-anchor="middle" x="586.93" y="-152.92" font-family="Helvetica,sans-Serif" font-size="10.00" fill="#ffffff">glycosylator.</text>
<text text-anchor="middle" x="586.93" y="-141.92" font-family="Helvetica,sans-Serif" font-size="10.00" fill="#ffffff">force_fields.</text>
<text text-anchor="middle" x="586.93" y="-130.92" font-family="Helvetica,sans-Serif" font-size="10.00" fill="#ffffff">glycan_topology</text>
</g>
<!-- glycosylator_force_fields_glycan_topology&#45;&gt;glycosylator_glycosylator -->
<g id="edge7" class="edge">
<title>glycosylator_force_fields_glycan_topology&#45;&gt;glycosylator_glycosylator</title><style>.edge>path:hover{stroke-width:8}</style>
<path fill="none" stroke="black" d="M582.51,-115.17C581.83,-103.72 582.52,-90.59 586.93,-79.43"/>
</g>
<!-- glycosylator_glycan_representations -->
<g id="node6" class="node">
<title>glycosylator_glycan_representations</title><style>.edge>path:hover{stroke-width:8}</style>
<ellipse fill="#9f5656" stroke="black" cx="560.93" cy="-230.62" rx="82.96" ry="21.43"/>
<text text-anchor="middle" x="560.93" y="-233.62" font-family="Helvetica,sans-Serif" font-size="10.00" fill="#ffffff">glycosylator.</text>
<text text-anchor="middle" x="560.93" y="-222.62" font-family="Helvetica,sans-Serif" font-size="10.00" fill="#ffffff">glycan_representations</text>
</g>
<!-- glycosylator_glycan_representations_atom_graph -->
<g id="node7" class="node">
<title>glycosylator_glycan_representations_atom_graph</title><style>.edge>path:hover{stroke-width:8}</style>
<ellipse fill="#9f5656" stroke="black" cx="422.93" cy="-489.24" rx="84.71" ry="28.98"/>
<text text-anchor="middle" x="422.93" y="-497.74" font-family="Helvetica,sans-Serif" font-size="10.00" fill="#ffffff">glycosylator.</text>
<text text-anchor="middle" x="422.93" y="-486.74" font-family="Helvetica,sans-Serif" font-size="10.00" fill="#ffffff">glycan_representations.</text>
<text text-anchor="middle" x="422.93" y="-475.74" font-family="Helvetica,sans-Serif" font-size="10.00" fill="#ffffff">atom_graph</text>
</g>
<!-- glycosylator_glycan_representations_residue_graph -->
<g id="node8" class="node">
<title>glycosylator_glycan_representations_residue_graph</title><style>.edge>path:hover{stroke-width:8}</style>
<ellipse fill="#995252" stroke="black" cx="422.93" cy="-144.42" rx="84.71" ry="28.98"/>
<text text-anchor="middle" x="422.93" y="-152.92" font-family="Helvetica,sans-Serif" font-size="10.00" fill="#ffffff">glycosylator.</text>
<text text-anchor="middle" x="422.93" y="-141.92" font-family="Helvetica,sans-Serif" font-size="10.00" fill="#ffffff">glycan_representations.</text>
<text text-anchor="middle" x="422.93" y="-130.92" font-family="Helvetica,sans-Serif" font-size="10.00" fill="#ffffff">residue_graph</text>
</g>
<!-- glycosylator_graphs -->
<g id="node10" class="node">
<title>glycosylator_graphs</title><style>.edge>path:hover{stroke-width:8}</style>
<ellipse fill="#db0505" stroke="black" cx="673.93" cy="-309.05" rx="50.41" ry="21.43"/>
<text text-anchor="middle" x="673.93" y="-312.05" font-family="Helvetica,sans-Serif" font-size="10.00" fill="#ffffff">glycosylator.</text>
<text text-anchor="middle" x="673.93" y="-301.05" font-family="Helvetica,sans-Serif" font-size="10.00" fill="#ffffff">graphs</text>
</g>
<!-- glycosylator_graphs&#45;&gt;glycosylator -->
<g id="edge8" class="edge">
<title>glycosylator_graphs&#45;&gt;glycosylator</title><style>.edge>path:hover{stroke-width:8}</style>
<path fill="none" stroke="black" d="M623.98,-305.49C544.03,-300.49 382.91,-286.68 250.93,-251.84 247.1,-250.82 243.18,-249.6 239.29,-248.25"/>
<polygon fill="#db0505" stroke="black" points="240.55,-244.99 229.96,-244.76 238.1,-251.54 240.55,-244.99"/>
</g>
<!-- glycosylator_graphs&#45;&gt;glycosylator_force_fields_glycan_topology -->
<g id="edge9" class="edge">
<title>glycosylator_graphs&#45;&gt;glycosylator_force_fields_glycan_topology</title><style>.edge>path:hover{stroke-width:8}</style>
<path fill="none" stroke="black" d="M449.93,-229.62C443.26,-210.33 488.93,-185.59 529.32,-167.93"/>
<polygon fill="#db0505" stroke="black" points="530.5,-171.24 538.31,-164.09 527.74,-164.8 530.5,-171.24"/>
</g>
<!-- glycosylator_graphs&#45;&gt;glycosylator_glycan_representations -->
<g id="edge10" class="edge">
<title>glycosylator_graphs&#45;&gt;glycosylator_glycan_representations</title><style>.edge>path:hover{stroke-width:8}</style>
<path fill="none" stroke="black" d="M647.72,-290.32C633.23,-280.52 614.95,-268.16 598.91,-257.31"/>
<polygon fill="#db0505" stroke="black" points="601.27,-254.68 591.03,-251.98 597.35,-260.48 601.27,-254.68"/>
</g>
<!-- glycosylator_graphs&#45;&gt;glycosylator_glycan_representations_residue_graph -->
<g id="edge11" class="edge">
<title>glycosylator_graphs&#45;&gt;glycosylator_glycan_representations_residue_graph</title><style>.edge>path:hover{stroke-width:8}</style>
<path fill="none" stroke="black" d="M449.93,-229.62C444.86,-214.97 439.59,-198.77 435.07,-184.53"/>
<polygon fill="#db0505" stroke="black" points="438.42,-183.52 432.07,-175.04 431.74,-185.63 438.42,-183.52"/>
<path fill="none" stroke="black" d="M634.78,-295.3C626.59,-292.74 618,-290.14 609.93,-287.84 537.45,-267.15 474.57,-302.85 449.93,-231.62"/>
</g>
<!-- glycosylator_graphs&#45;&gt;glycosylator_glycosylator -->
<g id="edge12" class="edge">
<title>glycosylator_graphs&#45;&gt;glycosylator_glycosylator</title><style>.edge>path:hover{stroke-width:8}</style>
<path fill="none" stroke="black" d="M678.39,-287.29C686.31,-247.74 700.22,-163.85 679.93,-145.42"/>
<path fill="none" stroke="black" d="M679.93,-143.42C667.97,-133.06 670.17,-125.46 657.93,-115.43 630.58,-92.99 573.93,-112.33 586.93,-79.43"/>
</g>
<!-- glycosylator_molecule -->
<g id="node14" class="node">
<title>glycosylator_molecule</title><style>.edge>path:hover{stroke-width:8}</style>
<ellipse fill="#8f3d3d" stroke="black" cx="309.93" cy="-230.62" rx="50.41" ry="21.43"/>
<text text-anchor="middle" x="309.93" y="-233.62" font-family="Helvetica,sans-Serif" font-size="10.00" fill="#ffffff">glycosylator.</text>
<text text-anchor="middle" x="309.93" y="-222.62" font-family="Helvetica,sans-Serif" font-size="10.00" fill="#ffffff">molecule</text>
</g>
<!-- glycosylator_graphs&#45;&gt;glycosylator_molecule -->
<g id="edge13" class="edge">
<title>glycosylator_graphs&#45;&gt;glycosylator_molecule</title><style>.edge>path:hover{stroke-width:8}</style>
<path fill="none" stroke="black" d="M629.3,-298.68C562.9,-284.74 438.16,-258.55 365.79,-243.35"/>
<polygon fill="#db0505" stroke="black" points="366.63,-239.95 356.13,-241.32 365.19,-246.8 366.63,-239.95"/>
</g>
<!-- glycosylator_molecule_orig -->
<g id="node16" class="node">
<title>glycosylator_molecule_orig</title><style>.edge>path:hover{stroke-width:8}</style>
<ellipse fill="#924e4e" stroke="black" cx="753.93" cy="-230.62" rx="54.39" ry="21.43"/>
<text text-anchor="middle" x="753.93" y="-233.62" font-family="Helvetica,sans-Serif" font-size="10.00" fill="#ffffff">glycosylator.</text>
<text text-anchor="middle" x="753.93" y="-222.62" font-family="Helvetica,sans-Serif" font-size="10.00" fill="#ffffff">molecule_orig</text>
</g>
<!-- glycosylator_graphs&#45;&gt;glycosylator_molecule_orig -->
<g id="edge14" class="edge">
<title>glycosylator_graphs&#45;&gt;glycosylator_molecule_orig</title><style>.edge>path:hover{stroke-width:8}</style>
<path fill="none" stroke="black" d="M693.71,-289.16C703.35,-279.95 715.11,-268.71 725.68,-258.62"/>
<polygon fill="#db0505" stroke="black" points="727.92,-261.31 732.73,-251.87 723.09,-256.25 727.92,-261.31"/>
</g>
<!-- glycosylator_graphs_AtomGraph -->
<g id="node11" class="node">
<title>glycosylator_graphs_AtomGraph</title><style>.edge>path:hover{stroke-width:8}</style>
<ellipse fill="#c11515" stroke="black" cx="679.93" cy="-489.24" rx="50.41" ry="28.98"/>
<text text-anchor="middle" x="679.93" y="-497.74" font-family="Helvetica,sans-Serif" font-size="10.00" fill="#ffffff">glycosylator.</text>
<text text-anchor="middle" x="679.93" y="-486.74" font-family="Helvetica,sans-Serif" font-size="10.00" fill="#ffffff">graphs.</text>
<text text-anchor="middle" x="679.93" y="-475.74" font-family="Helvetica,sans-Serif" font-size="10.00" fill="#ffffff">AtomGraph</text>
</g>
<!-- glycosylator_graphs_AtomGraph&#45;&gt;glycosylator_glycan_representations_residue_graph -->
<g id="edge15" class="edge">
<title>glycosylator_graphs_AtomGraph&#45;&gt;glycosylator_glycan_representations_residue_graph</title><style>.edge>path:hover{stroke-width:8}</style>
<path fill="none" stroke="black" d="M595.93,-394.25C590.26,-346.1 605.58,-322.75 571.93,-287.84 528.54,-242.81 477.01,-298.98 435.93,-251.84 420.28,-233.87 417.03,-207.27 417.69,-185.16"/>
<polygon fill="#c11515" stroke="black" points="421.18,-185.45 418.29,-175.26 414.19,-185.03 421.18,-185.45"/>
</g>
<!-- glycosylator_graphs_AtomGraph&#45;&gt;glycosylator_graphs -->
<g id="edge16" class="edge">
<title>glycosylator_graphs_AtomGraph&#45;&gt;glycosylator_graphs</title><style>.edge>path:hover{stroke-width:8}</style>
<path fill="none" stroke="black" d="M595.93,-394.25C593.18,-368.48 613.37,-347.16 633.89,-332.42"/>
<polygon fill="#c11515" stroke="black" points="635.66,-335.45 642,-326.96 631.75,-329.64 635.66,-335.45"/>
</g>
<!-- glycosylator_graphs_ResidueGraph -->
<g id="node13" class="node">
<title>glycosylator_graphs_ResidueGraph</title><style>.edge>path:hover{stroke-width:8}</style>
<ellipse fill="#ae1e1e" stroke="black" cx="679.93" cy="-395.25" rx="55.72" ry="28.98"/>
<text text-anchor="middle" x="679.93" y="-403.75" font-family="Helvetica,sans-Serif" font-size="10.00" fill="#ffffff">glycosylator.</text>
<text text-anchor="middle" x="679.93" y="-392.75" font-family="Helvetica,sans-Serif" font-size="10.00" fill="#ffffff">graphs.</text>
<text text-anchor="middle" x="679.93" y="-381.75" font-family="Helvetica,sans-Serif" font-size="10.00" fill="#ffffff">ResidueGraph</text>
</g>
<!-- glycosylator_graphs_AtomGraph&#45;&gt;glycosylator_graphs_ResidueGraph -->
<g id="edge17" class="edge">
<title>glycosylator_graphs_AtomGraph&#45;&gt;glycosylator_graphs_ResidueGraph</title><style>.edge>path:hover{stroke-width:8}</style>
<path fill="none" stroke="black" d="M679.93,-459.89C679.93,-452.37 679.93,-444.11 679.93,-436.1"/>
<polygon fill="#c11515" stroke="black" points="683.43,-436.18 679.93,-426.18 676.43,-436.18 683.43,-436.18"/>
</g>
<!-- glycosylator_graphs_AtomGraph&#45;&gt;glycosylator_molecule -->
<g id="edge18" class="edge">
<title>glycosylator_graphs_AtomGraph&#45;&gt;glycosylator_molecule</title><style>.edge>path:hover{stroke-width:8}</style>
<path fill="none" stroke="black" d="M646.47,-467.56C624.62,-451.36 599.5,-426.54 595.93,-396.25"/>
<path fill="none" stroke="black" d="M595.93,-394.25C591.13,-353.48 590.33,-335.27 557.93,-310.05"/>
</g>
<!-- glycosylator_graphs_AtomGraph&#45;&gt;glycosylator_molecule_orig -->
<g id="edge19" class="edge">
<title>glycosylator_graphs_AtomGraph&#45;&gt;glycosylator_molecule_orig</title><style>.edge>path:hover{stroke-width:8}</style>
<path fill="none" stroke="black" d="M595.93,-394.25C594.34,-379.3 602.83,-375.18 614.93,-366.26 659.07,-333.72 695.87,-370.67 732.93,-330.26 749.23,-312.49 754.07,-285.29 755.06,-263.95"/>
<polygon fill="#c11515" stroke="black" points="758.56,-264.06 755.24,-254 751.56,-263.94 758.56,-264.06"/>
</g>
<!-- glycosylator_graphs_BaseGraph -->
<g id="node12" class="node">
<title>glycosylator_graphs_BaseGraph</title><style>.edge>path:hover{stroke-width:8}</style>
<ellipse fill="#c24747" stroke="black" cx="697.93" cy="-583.22" rx="50.41" ry="28.98"/>
<text text-anchor="middle" x="697.93" y="-591.72" font-family="Helvetica,sans-Serif" font-size="10.00" fill="#ffffff">glycosylator.</text>
<text text-anchor="middle" x="697.93" y="-580.72" font-family="Helvetica,sans-Serif" font-size="10.00" fill="#ffffff">graphs.</text>
<text text-anchor="middle" x="697.93" y="-569.72" font-family="Helvetica,sans-Serif" font-size="10.00" fill="#ffffff">BaseGraph</text>
</g>
<!-- glycosylator_graphs_BaseGraph&#45;&gt;glycosylator_graphs_AtomGraph -->
<g id="edge20" class="edge">
<title>glycosylator_graphs_BaseGraph&#45;&gt;glycosylator_graphs_AtomGraph</title><style>.edge>path:hover{stroke-width:8}</style>
<path fill="none" stroke="black" d="M692.43,-554.12C690.93,-546.44 689.27,-537.96 687.67,-529.77"/>
<polygon fill="#c24747" stroke="black" points="691.11,-529.11 685.75,-519.96 684.24,-530.45 691.11,-529.11"/>
</g>
<!-- glycosylator_graphs_BaseGraph&#45;&gt;glycosylator_graphs_ResidueGraph -->
<g id="edge21" class="edge">
<title>glycosylator_graphs_BaseGraph&#45;&gt;glycosylator_graphs_ResidueGraph</title><style>.edge>path:hover{stroke-width:8}</style>
<path fill="none" stroke="black" d="M732.63,-562.11C756.17,-545.54 782,-519.98 775.93,-490.24"/>
<path fill="none" stroke="black" d="M775.93,-488.24C770.36,-460.95 748.72,-438.95 727.39,-423.32"/>
<polygon fill="#c24747" stroke="black" points="729.45,-420.49 719.24,-417.66 725.46,-426.24 729.45,-420.49"/>
</g>
<!-- glycosylator_graphs_ResidueGraph&#45;&gt;glycosylator_glycosylator -->
<g id="edge22" class="edge">
<title>glycosylator_graphs_ResidueGraph&#45;&gt;glycosylator_glycosylator</title><style>.edge>path:hover{stroke-width:8}</style>
<path fill="none" stroke="black" d="M797.93,-308.05C814.46,-273.9 851.2,-266.35 835.93,-231.62"/>
<path fill="none" stroke="black" d="M835.93,-229.62C815.84,-183.91 765.54,-219.52 679.93,-145.42"/>
</g>
<!-- glycosylator_graphs_ResidueGraph&#45;&gt;glycosylator_graphs -->
<g id="edge23" class="edge">
<title>glycosylator_graphs_ResidueGraph&#45;&gt;glycosylator_graphs</title><style>.edge>path:hover{stroke-width:8}</style>
<path fill="none" stroke="black" d="M677.93,-366.21C677.39,-358.53 676.79,-350.13 676.23,-342.23"/>
<polygon fill="#ae1e1e" stroke="black" points="679.72,-342.01 675.52,-332.28 672.74,-342.51 679.72,-342.01"/>
</g>
<!-- glycosylator_graphs_ResidueGraph&#45;&gt;glycosylator_molecule -->
<g id="edge24" class="edge">
<title>glycosylator_graphs_ResidueGraph&#45;&gt;glycosylator_molecule</title><style>.edge>path:hover{stroke-width:8}</style>
<path fill="none" stroke="black" d="M645.53,-372.04C620.67,-355.62 586.57,-332.34 557.93,-310.05"/>
</g>
<!-- glycosylator_graphs_ResidueGraph&#45;&gt;glycosylator_molecule_orig -->
<g id="edge25" class="edge">
<title>glycosylator_graphs_ResidueGraph&#45;&gt;glycosylator_molecule_orig</title><style>.edge>path:hover{stroke-width:8}</style>
<path fill="none" stroke="black" d="M797.93,-308.05C806.05,-291.27 796.5,-273.17 784.25,-258.8"/>
<polygon fill="#ae1e1e" stroke="black" points="786.81,-256.41 777.43,-251.48 781.69,-261.18 786.81,-256.41"/>
<path fill="none" stroke="black" d="M723.28,-376.55C750.41,-362.86 782.96,-340.97 797.93,-310.05"/>
</g>
<!-- glycosylator_molecule&#45;&gt;glycosylator_glycosylator -->
<g id="edge26" class="edge">
<title>glycosylator_molecule&#45;&gt;glycosylator_glycosylator</title><style>.edge>path:hover{stroke-width:8}</style>
<path fill="none" stroke="black" d="M301.74,-209.18C294.73,-188.08 288.78,-156.7 309.93,-145.42"/>
</g>
<!-- glycosylator_molecule_builder&#45;&gt;glycosylator_glycosylator -->
<g id="edge27" class="edge">
<title>glycosylator_molecule_builder&#45;&gt;glycosylator_glycosylator</title><style>.edge>path:hover{stroke-width:8}</style>
<path fill="none" stroke="black" d="M309.93,-143.42C323.2,-136.34 316.17,-123.37 328.93,-115.43 378.08,-84.85 565.66,-133.26 586.93,-79.43"/>
<path fill="none" stroke="black" d="M61.66,-561.57C59,-500.08 59.47,-315.82 150.93,-209.41 200.59,-151.64 242.71,-181.26 309.93,-145.42"/>
<path fill="none" stroke="black" d="M586.93,-78.43C589.9,-70.93 590.95,-62.41 591.01,-54.32"/>
<polygon fill="#a44646" stroke="black" points="594.51,-54.27 590.57,-44.44 587.52,-54.58 594.51,-54.27"/>
</g>
<!-- glycosylator_resources -->
<g id="node17" class="node">
<title>glycosylator_resources</title><style>.edge>path:hover{stroke-width:8}</style>
<ellipse fill="#b65353" stroke="black" cx="231.93" cy="-309.05" rx="50.41" ry="21.43"/>
<text text-anchor="middle" x="231.93" y="-312.05" font-family="Helvetica,sans-Serif" font-size="10.00" fill="#ffffff">glycosylator.</text>
<text text-anchor="middle" x="231.93" y="-301.05" font-family="Helvetica,sans-Serif" font-size="10.00" fill="#ffffff">resources</text>
</g>
<!-- glycosylator_resources&#45;&gt;glycosylator -->
<g id="edge28" class="edge">
<title>glycosylator_resources&#45;&gt;glycosylator</title><style>.edge>path:hover{stroke-width:8}</style>
<path fill="none" stroke="black" d="M223.63,-287.57C220.07,-278.8 215.86,-268.42 212.04,-259.01"/>
<polygon fill="#b65353" stroke="black" points="215.37,-257.9 208.37,-249.95 208.88,-260.53 215.37,-257.9"/>
</g>
<!-- glycosylator_sampler -->
<g id="node18" class="node">
<title>glycosylator_sampler</title><style>.edge>path:hover{stroke-width:8}</style>
<ellipse fill="#9f5656" stroke="black" cx="385.93" cy="-583.22" rx="50.41" ry="21.43"/>
<text text-anchor="middle" x="385.93" y="-586.22" font-family="Helvetica,sans-Serif" font-size="10.00" fill="#ffffff">glycosylator.</text>
<text text-anchor="middle" x="385.93" y="-575.22" font-family="Helvetica,sans-Serif" font-size="10.00" fill="#ffffff">sampler</text>
</g>
<!-- glycosylator_utils -->
<g id="node19" class="node">
<title>glycosylator_utils</title><style>.edge>path:hover{stroke-width:8}</style>
<ellipse fill="#b30404" stroke="black" cx="484.93" cy="-669.42" rx="50.41" ry="21.43"/>
<text text-anchor="middle" x="484.93" y="-672.42" font-family="Helvetica,sans-Serif" font-size="10.00" fill="#ffffff">glycosylator.</text>
<text text-anchor="middle" x="484.93" y="-661.42" font-family="Helvetica,sans-Serif" font-size="10.00" fill="#ffffff">utils</text>
</g>
<!-- glycosylator_utils&#45;&gt;glycosylator -->
<g id="edge29" class="edge">
<title>glycosylator_utils&#45;&gt;glycosylator</title><style>.edge>path:hover{stroke-width:8}</style>
<path fill="none" stroke="black" d="M309.93,-308.05C304.63,-291.13 266.54,-267.04 236.86,-250.46"/>
<polygon fill="#b30404" stroke="black" points="238.56,-247.39 228.11,-245.65 235.19,-253.53 238.56,-247.39"/>
<path fill="none" stroke="black" d="M307.93,-582.22C279.65,-528.76 328.02,-367.77 309.93,-310.05"/>
</g>
<!-- glycosylator_utils&#45;&gt;glycosylator_drawer -->
<g id="edge30" class="edge">
<title>glycosylator_utils&#45;&gt;glycosylator_drawer</title><style>.edge>path:hover{stroke-width:8}</style>
<path fill="none" stroke="black" d="M489.63,-647.61C491.79,-638.02 494.41,-626.44 496.8,-615.81"/>
<polygon fill="#b30404" stroke="black" points="500.17,-616.8 498.96,-606.27 493.34,-615.25 500.17,-616.8"/>
</g>
<!-- glycosylator_utils&#45;&gt;glycosylator_force_fields_charmm -->
<g id="edge31" class="edge">
<title>glycosylator_utils&#45;&gt;glycosylator_force_fields_charmm</title><style>.edge>path:hover{stroke-width:8}</style>
<path fill="none" stroke="black" d="M439.01,-660.12C405.31,-652.23 359.87,-637.68 326.93,-612.21 315.04,-603.01 314.96,-597.51 307.93,-584.22"/>
<path fill="none" stroke="black" d="M307.93,-582.22C296.55,-560.7 279.6,-539.56 264.6,-522.98"/>
<polygon fill="#b30404" stroke="black" points="267.36,-520.81 258,-515.85 262.23,-525.57 267.36,-520.81"/>
</g>
<!-- glycosylator_utils&#45;&gt;glycosylator_glycan_representations_atom_graph -->
<g id="edge32" class="edge">
<title>glycosylator_utils&#45;&gt;glycosylator_glycan_representations_atom_graph</title><style>.edge>path:hover{stroke-width:8}</style>
<path fill="none" stroke="black" d="M307.93,-582.22C292.71,-553.44 321.08,-530.54 353.44,-514.78"/>
<polygon fill="#b30404" stroke="black" points="354.57,-518.11 362.2,-510.75 351.65,-511.75 354.57,-518.11"/>
</g>
<!-- glycosylator_utils&#45;&gt;glycosylator_graphs_AtomGraph -->
<g id="edge33" class="edge">
<title>glycosylator_utils&#45;&gt;glycosylator_graphs_AtomGraph</title><style>.edge>path:hover{stroke-width:8}</style>
<path fill="none" stroke="black" d="M527.9,-657.78C562.6,-646.36 607.62,-624.22 619.93,-584.22"/>
<path fill="none" stroke="black" d="M619.93,-582.22C626.31,-561.5 638.86,-541.04 650.83,-524.7"/>
<polygon fill="#b30404" stroke="black" points="653.58,-526.87 656.85,-516.79 648.01,-522.63 653.58,-526.87"/>
</g>
<!-- glycosylator_utils&#45;&gt;glycosylator_graphs_ResidueGraph -->
<g id="edge34" class="edge">
<title>glycosylator_utils&#45;&gt;glycosylator_graphs_ResidueGraph</title><style>.edge>path:hover{stroke-width:8}</style>
<path fill="none" stroke="black" d="M535.64,-669.01C593.77,-667.33 689.68,-657.16 756.93,-612.21 769.43,-603.86 768.25,-597.14 775.93,-584.22"/>
<path fill="none" stroke="black" d="M775.93,-582.22C796.82,-547.08 784.11,-530.29 775.93,-490.24"/>
</g>
<!-- glycosylator_utils&#45;&gt;glycosylator_molecule -->
<g id="edge35" class="edge">
<title>glycosylator_utils&#45;&gt;glycosylator_molecule</title><style>.edge>path:hover{stroke-width:8}</style>
<path fill="none" stroke="black" d="M309.93,-308.05C305.47,-293.8 304.93,-277.32 305.73,-263.32"/>
<polygon fill="#b30404" stroke="black" points="309.18,-264 306.53,-253.75 302.2,-263.42 309.18,-264"/>
</g>
<!-- glycosylator_utils&#45;&gt;glycosylator_molecule_builder -->
<g id="edge36" class="edge">
<title>glycosylator_utils&#45;&gt;glycosylator_molecule_builder</title><style>.edge>path:hover{stroke-width:8}</style>
<path fill="none" stroke="black" d="M439.77,-659.41C364.68,-644.43 213.9,-614.34 127.57,-597.12"/>
<polygon fill="#b30404" stroke="black" points="128.31,-593.7 117.82,-595.17 126.95,-600.56 128.31,-593.7"/>
</g>
<!-- glycosylator_utils&#45;&gt;glycosylator_sampler -->
<g id="edge37" class="edge">
<title>glycosylator_utils&#45;&gt;glycosylator_sampler</title><style>.edge>path:hover{stroke-width:8}</style>
<path fill="none" stroke="black" d="M462.96,-649.74C449.25,-638.07 431.4,-622.89 416.34,-610.08"/>
<polygon fill="#b30404" stroke="black" points="418.88,-607.65 409,-603.83 414.35,-612.98 418.88,-607.65"/>
</g>
<!-- glycosylator_utils_abstract -->
<g id="node20" class="node">
<title>glycosylator_utils_abstract</title><style>.edge>path:hover{stroke-width:8}</style>
<ellipse fill="#b03a3a" stroke="black" cx="309.93" cy="-755.63" rx="50.41" ry="28.98"/>
<text text-anchor="middle" x="309.93" y="-764.13" font-family="Helvetica,sans-Serif" font-size="10.00" fill="#ffffff">glycosylator.</text>
<text text-anchor="middle" x="309.93" y="-753.13" font-family="Helvetica,sans-Serif" font-size="10.00" fill="#ffffff">utils.</text>
<text text-anchor="middle" x="309.93" y="-742.13" font-family="Helvetica,sans-Serif" font-size="10.00" fill="#ffffff">abstract</text>
</g>
<!-- glycosylator_utils_abstract&#45;&gt;glycosylator_force_fields_charmm -->
<g id="edge38" class="edge">
<title>glycosylator_utils_abstract&#45;&gt;glycosylator_force_fields_charmm</title><style>.edge>path:hover{stroke-width:8}</style>
<path fill="none" stroke="black" d="M301.73,-726.83C287.75,-679.43 259.25,-582.84 243.34,-528.89"/>
<polygon fill="#b03a3a" stroke="black" points="246.75,-528.11 240.57,-519.51 240.04,-530.09 246.75,-528.11"/>
</g>
<!-- glycosylator_utils_abstract&#45;&gt;glycosylator_utils -->
<g id="edge39" class="edge">
<title>glycosylator_utils_abstract&#45;&gt;glycosylator_utils</title><style>.edge>path:hover{stroke-width:8}</style>
<path fill="none" stroke="black" d="M347.9,-736.36C375.66,-723 413.33,-704.88 442.15,-691.01"/>
<polygon fill="#b03a3a" stroke="black" points="443.47,-694.26 450.96,-686.77 440.43,-687.95 443.47,-694.26"/>
</g>
<!-- glycosylator_utils_auxiliary -->
<g id="node21" class="node">
<title>glycosylator_utils_auxiliary</title><style>.edge>path:hover{stroke-width:8}</style>
<ellipse fill="#b65353" stroke="black" cx="621.93" cy="-755.63" rx="50.41" ry="28.98"/>
<text text-anchor="middle" x="621.93" y="-764.13" font-family="Helvetica,sans-Serif" font-size="10.00" fill="#ffffff">glycosylator.</text>
<text text-anchor="middle" x="621.93" y="-753.13" font-family="Helvetica,sans-Serif" font-size="10.00" fill="#ffffff">utils.</text>
<text text-anchor="middle" x="621.93" y="-742.13" font-family="Helvetica,sans-Serif" font-size="10.00" fill="#ffffff">auxiliary</text>
</g>
<!-- glycosylator_utils_auxiliary&#45;&gt;glycosylator_utils -->
<g id="edge40" class="edge">
<title>glycosylator_utils_auxiliary&#45;&gt;glycosylator_utils</title><style>.edge>path:hover{stroke-width:8}</style>
<path fill="none" stroke="black" d="M588.07,-733.81C568.18,-721.59 543.02,-706.12 522.52,-693.53"/>
<polygon fill="#b65353" stroke="black" points="524.52,-690.65 514.17,-688.39 520.85,-696.61 524.52,-690.65"/>
</g>
<!-- glycosylator_utils_constants -->
<g id="node22" class="node">
<title>glycosylator_utils_constants</title><style>.edge>path:hover{stroke-width:8}</style>
<ellipse fill="#ce3b3b" stroke="black" cx="545.93" cy="-1037.58" rx="50.41" ry="28.98"/>
<text text-anchor="middle" x="545.93" y="-1046.08" font-family="Helvetica,sans-Serif" font-size="10.00" fill="#ffffff">glycosylator.</text>
<text text-anchor="middle" x="545.93" y="-1035.08" font-family="Helvetica,sans-Serif" font-size="10.00" fill="#ffffff">utils.</text>
<text text-anchor="middle" x="545.93" y="-1024.08" font-family="Helvetica,sans-Serif" font-size="10.00" fill="#ffffff">constants</text>
</g>
<!-- glycosylator_utils_constants&#45;&gt;glycosylator_utils -->
<g id="edge41" class="edge">
<title>glycosylator_utils_constants&#45;&gt;glycosylator_utils</title><style>.edge>path:hover{stroke-width:8}</style>
<path fill="none" stroke="black" d="M582.56,-1017.34C610.33,-1001.15 647.72,-975.69 671.93,-944.59"/>
<path fill="none" stroke="black" d="M671.93,-942.59C686.69,-923.65 695.39,-745.82 680.93,-726.64 664.26,-704.51 594.71,-688.43 543.17,-679.27"/>
<polygon fill="#ce3b3b" stroke="black" points="544.09,-675.88 533.64,-677.62 542.9,-682.77 544.09,-675.88"/>
</g>
<!-- glycosylator_utils_constants&#45;&gt;glycosylator_utils_defaults -->
<g id="edge42" class="edge">
<title>glycosylator_utils_constants&#45;&gt;glycosylator_utils_defaults</title><style>.edge>path:hover{stroke-width:8}</style>
<path fill="none" stroke="black" d="M534.23,-1008.98C530.72,-1000.7 526.81,-991.47 523.07,-982.65"/>
<polygon fill="#ce3b3b" stroke="black" points="526.34,-981.41 519.22,-973.57 519.9,-984.14 526.34,-981.41"/>
</g>
<!-- glycosylator_utils_structural -->
<g id="node24" class="node">
<title>glycosylator_utils_structural</title><style>.edge>path:hover{stroke-width:8}</style>
<ellipse fill="#ca1616" stroke="black" cx="749.93" cy="-849.61" rx="50.41" ry="28.98"/>
<text text-anchor="middle" x="749.93" y="-858.11" font-family="Helvetica,sans-Serif" font-size="10.00" fill="#ffffff">glycosylator.</text>
<text text-anchor="middle" x="749.93" y="-847.11" font-family="Helvetica,sans-Serif" font-size="10.00" fill="#ffffff">utils.</text>
<text text-anchor="middle" x="749.93" y="-836.11" font-family="Helvetica,sans-Serif" font-size="10.00" fill="#ffffff">structural</text>
</g>
<!-- glycosylator_utils_constants&#45;&gt;glycosylator_utils_structural -->
<g id="edge43" class="edge">
<title>glycosylator_utils_constants&#45;&gt;glycosylator_utils_structural</title><style>.edge>path:hover{stroke-width:8}</style>
<path fill="none" stroke="black" d="M671.93,-942.59C687.27,-922.9 705.24,-901.6 720.06,-884.46"/>
<polygon fill="#ce3b3b" stroke="black" points="722.58,-886.89 726.5,-877.05 717.3,-882.3 722.58,-886.89"/>
</g>
<!-- glycosylator_utils_defaults&#45;&gt;glycosylator_force_fields_charmm -->
<g id="edge44" class="edge">
<title>glycosylator_utils_defaults&#45;&gt;glycosylator_force_fields_charmm</title><style>.edge>path:hover{stroke-width:8}</style>
<path fill="none" stroke="black" d="M448.33,-930.51C367.58,-910.05 231.93,-860.25 231.93,-756.63 231.93,-756.63 231.93,-756.63 231.93,-668.42 231.93,-620.9 231.93,-566.24 231.93,-530.13"/>
<polygon fill="#ac2b2b" stroke="black" points="447.33,-933.87 457.87,-932.85 448.99,-927.07 447.33,-933.87"/>
<polygon fill="#ac2b2b" stroke="black" points="235.43,-530.14 231.93,-520.14 228.43,-530.14 235.43,-530.14"/>
</g>
<!-- glycosylator_utils_defaults&#45;&gt;glycosylator_utils -->
<g id="edge45" class="edge">
<title>glycosylator_utils_defaults&#45;&gt;glycosylator_utils</title><style>.edge>path:hover{stroke-width:8}</style>
<path fill="none" stroke="black" d="M484.33,-917.2C459.76,-887.74 421.98,-836.53 406.93,-784.62 399.76,-759.87 395.19,-749.58 406.93,-726.64 414.4,-712.05 427.61,-700.38 441.06,-691.54"/>
<polygon fill="#ac2b2b" stroke="black" points="442.8,-694.58 449.53,-686.39 439.17,-688.6 442.8,-694.58"/>
</g>
<!-- glycosylator_utils_defaults&#45;&gt;glycosylator_utils_structural -->
<g id="edge46" class="edge">
<title>glycosylator_utils_defaults&#45;&gt;glycosylator_utils_structural</title><style>.edge>path:hover{stroke-width:8}</style>
<path fill="none" stroke="black" d="M548.71,-926.78C589.95,-911.17 653.14,-887.25 697.68,-870.39"/>
<polygon fill="#ac2b2b" stroke="black" points="698.77,-873.72 706.88,-866.91 696.29,-867.17 698.77,-873.72"/>
</g>
<!-- glycosylator_utils_structural&#45;&gt;glycosylator_graphs_AtomGraph -->
<g id="edge47" class="edge">
<title>glycosylator_utils_structural&#45;&gt;glycosylator_graphs_AtomGraph</title><style>.edge>path:hover{stroke-width:8}</style>
<path fill="none" stroke="black" d="M749.93,-668.42C722.79,-605.16 599.68,-650.01 619.93,-584.22"/>
</g>
<!-- glycosylator_utils_structural&#45;&gt;glycosylator_graphs_ResidueGraph -->
<g id="edge48" class="edge">
<title>glycosylator_utils_structural&#45;&gt;glycosylator_graphs_ResidueGraph</title><style>.edge>path:hover{stroke-width:8}</style>
<path fill="none" stroke="black" d="M749.93,-668.42C734.49,-632.43 755.92,-617.89 775.93,-584.22"/>
</g>
<!-- glycosylator_utils_structural&#45;&gt;glycosylator_molecule -->
<g id="edge49" class="edge">
<title>glycosylator_utils_structural&#45;&gt;glycosylator_molecule</title><style>.edge>path:hover{stroke-width:8}</style>
<path fill="none" stroke="black" d="M557.93,-308.05C527.79,-284.58 428.77,-258.67 365.34,-243.85"/>
<polygon fill="#ca1616" stroke="black" points="366.33,-240.49 355.8,-241.64 364.76,-247.31 366.33,-240.49"/>
<path fill="none" stroke="black" d="M756.53,-820.39C763.57,-784.06 771.1,-719.75 749.93,-670.42"/>
<path fill="none" stroke="black" d="M749.93,-668.42C718.2,-607.49 649.03,-665.72 605.93,-612.21 584.61,-585.74 584.76,-330.93 557.93,-310.05"/>
</g>
<!-- glycosylator_utils_structural&#45;&gt;glycosylator_utils -->
<g id="edge50" class="edge">
<title>glycosylator_utils_structural&#45;&gt;glycosylator_utils</title><style>.edge>path:hover{stroke-width:8}</style>
<path fill="none" stroke="black" d="M701.61,-841.1C661.18,-832.84 603.72,-816.29 562.93,-784.62 538.6,-765.72 542.31,-752.08 524.93,-726.64 518.89,-717.8 512.2,-708.28 506.04,-699.63"/>
<polygon fill="#ca1616" stroke="black" points="508.92,-697.65 500.26,-691.56 503.23,-701.72 508.92,-697.65"/>
</g>
<!-- glycosylator_utils_structural&#45;&gt;glycosylator_utils_abstract -->
<g id="edge51" class="edge">
<title>glycosylator_utils_structural&#45;&gt;glycosylator_utils_abstract</title><style>.edge>path:hover{stroke-width:8}</style>
<path fill="none" stroke="black" d="M701.34,-841.06C634.59,-830.35 510.97,-809.27 406.93,-784.62 393.07,-781.33 378.23,-777.31 364.44,-773.36"/>
<polygon fill="#ca1616" stroke="black" points="365.67,-770.07 355.09,-770.63 363.71,-776.79 365.67,-770.07"/>
</g>
<!-- glycosylator_utils_visual -->
<g id="node25" class="node">
<title>glycosylator_utils_visual</title><style>.edge>path:hover{stroke-width:8}</style>
<ellipse fill="#b65353" stroke="black" cx="465.93" cy="-755.63" rx="50.41" ry="28.98"/>
<text text-anchor="middle" x="465.93" y="-764.13" font-family="Helvetica,sans-Serif" font-size="10.00" fill="#ffffff">glycosylator.</text>
<text text-anchor="middle" x="465.93" y="-753.13" font-family="Helvetica,sans-Serif" font-size="10.00" fill="#ffffff">utils.</text>
<text text-anchor="middle" x="465.93" y="-742.13" font-family="Helvetica,sans-Serif" font-size="10.00" fill="#ffffff">visual</text>
</g>
<!-- glycosylator_utils_visual&#45;&gt;glycosylator_utils -->
<g id="edge52" class="edge">
<title>glycosylator_utils_visual&#45;&gt;glycosylator_utils</title><style>.edge>path:hover{stroke-width:8}</style>
<path fill="none" stroke="black" d="M472.26,-726.59C474.01,-718.81 475.93,-710.31 477.73,-702.33"/>
<polygon fill="#b65353" stroke="black" points="481.14,-703.15 479.92,-692.63 474.31,-701.61 481.14,-703.15"/>
</g>
</g>
</svg>
