<?xml version="1.0" encoding="UTF-8" standalone="no"?>
<!-- Created with Inkscape (http://www.inkscape.org/) -->

<svg
   width="24.93705mm"
   height="22.677759mm"
   viewBox="0 0 24.93705 22.677759"
   version="1.1"
   id="svg1"
   inkscape:version="1.3 (0e150ed, 2023-07-21)"
   sodipodi:docname="logo_small_dark.svg"
   xmlns:inkscape="http://www.inkscape.org/namespaces/inkscape"
   xmlns:sodipodi="http://sodipodi.sourceforge.net/DTD/sodipodi-0.dtd"
   xmlns="http://www.w3.org/2000/svg"
   xmlns:svg="http://www.w3.org/2000/svg">
  <sodipodi:namedview
     id="namedview1"
     pagecolor="#ffffff"
     bordercolor="#000000"
     borderopacity="0.25"
     inkscape:showpageshadow="2"
     inkscape:pageopacity="0.0"
     inkscape:pagecheckerboard="0"
     inkscape:deskcolor="#d1d1d1"
     inkscape:document-units="mm"
     inkscape:zoom="1.5418954"
     inkscape:cx="14.268153"
     inkscape:cy="28.536307"
     inkscape:window-width="1344"
     inkscape:window-height="449"
     inkscape:window-x="0"
     inkscape:window-y="25"
     inkscape:window-maximized="0"
     inkscape:current-layer="layer1" />
  <defs
     id="defs1">
    <inkscape:path-effect
       effect="fillet_chamfer"
       id="path-effect13"
       is_visible="true"
       lpeversion="1"
       nodesatellites_param="F,0,0,1,0,0.52916667,0,1 @ F,0,0,1,0,0.52916667,0,1 @ F,0,0,1,0,0.52916667,0,1 @ F,0,0,1,0,0.52916667,0,1 @ F,0,0,1,0,0.52916667,0,1 @ F,0,0,1,0,0.52916667,0,1"
       unit="px"
       method="auto"
       mode="F"
       radius="2"
       chamfer_steps="1"
       flexible="false"
       use_knot_distance="true"
       apply_no_radius="true"
       apply_with_radius="true"
       only_selected="false"
       hide_knots="false" />
    <inkscape:path-effect
       effect="fillet_chamfer"
       id="path-effect15"
       is_visible="true"
       lpeversion="1"
       nodesatellites_param="F,0,0,1,0,0.52916667,0,1 @ F,0,0,1,0,0.52916667,0,1 @ F,0,0,1,0,0.52916667,0,1 @ F,0,0,1,0,0.52916667,0,1 @ F,0,0,1,0,0.52916667,0,1 @ F,0,0,1,0,0.52916667,0,1 @ F,0,0,1,0,0.52916667,0,1 @ F,0,0,1,0,0.52916667,0,1 @ F,0,0,1,0,0.56384305,0,1 @ F,0,0,1,0,0.52916667,0,1 @ F,0,0,1,0,0.52916667,0,1 @ F,0,0,1,0,0.52916667,0,1 @ F,0,0,1,0,0.52916667,0,1 @ F,0,0,1,0,0.52916667,0,1 @ F,0,0,1,0,0.52916667,0,1 @ F,0,0,1,0,0.52916667,0,1 @ F,0,0,1,0,0.52916667,0,1 @ F,0,0,1,0,0.52916667,0,1 @ F,0,0,1,0,0.52916667,0,1 @ F,0,0,1,0,0.52916667,0,1 @ F,0,0,1,0,0.52916667,0,1 @ F,0,0,1,0,0.52916667,0,1 @ F,0,0,1,0,0.52916667,0,1 @ F,0,0,1,0,0.52916667,0,1 @ F,0,0,1,0,0.52916667,0,1 @ F,0,0,1,0,0.52916667,0,1 @ F,0,0,1,0,0.52916667,0,1 @ F,0,0,1,0,0.52916667,0,1 @ F,0,0,1,0,0.52916667,0,1 @ F,0,0,1,0,0.52916667,0,1 @ F,0,0,1,0,0.52916667,0,1 @ F,0,0,1,0,0.52916667,0,1 @ F,0,0,1,0,0.52916667,0,1"
       unit="px"
       method="auto"
       mode="F"
       radius="2"
       chamfer_steps="1"
       flexible="false"
       use_knot_distance="true"
       apply_no_radius="true"
       apply_with_radius="true"
       only_selected="false"
       hide_knots="false" />
    <inkscape:path-effect
       effect="fillet_chamfer"
       id="path-effect17"
       is_visible="true"
       lpeversion="1"
       nodesatellites_param="F,0,0,1,0,0.52916667,0,1 @ F,0,0,1,0,0.52916667,0,1 @ F,0,0,1,0,0.52916667,0,1 @ F,0,1,1,0,0.60786129,0,1 @ F,0,0,1,0,0.60786129,0,1 @ F,0,0,1,0,0.52916667,0,1 @ F,0,0,1,0,0.52916667,0,1 @ F,0,0,1,0,0.52916667,0,1 @ F,0,0,1,0,0.52916667,0,1 @ F,0,0,1,0,0.52916667,0,1 @ F,0,0,1,0,0.52916667,0,1 @ F,0,0,1,0,0.52916667,0,1 @ F,0,0,1,0,0.52916667,0,1 @ F,0,0,1,0,0.52916667,0,1 @ F,0,0,1,0,0.52916667,0,1 @ F,0,0,1,0,0.52916667,0,1 @ F,0,0,1,0,0.52916667,0,1 @ F,0,0,1,0,0.52916667,0,1 @ F,0,0,1,0,0.52916667,0,1 @ F,0,0,1,0,0.52916667,0,1 @ F,0,0,1,0,0.52916667,0,1 @ F,0,0,1,0,0.52916667,0,1 @ F,0,0,1,0,0.52916667,0,1 @ F,0,0,1,0,0.52916667,0,1 @ F,0,0,1,0,0.52916667,0,1 @ F,0,0,1,0,0.85228651,0,1 @ F,0,0,1,0,0.74390188,0,1 @ F,0,0,1,0,0.52916667,0,1"
       unit="px"
       method="auto"
       mode="F"
       radius="2"
       chamfer_steps="1"
       flexible="false"
       use_knot_distance="true"
       apply_no_radius="true"
       apply_with_radius="true"
       only_selected="false"
       hide_knots="false" />
    <inkscape:path-effect
       effect="fillet_chamfer"
       id="path-effect19"
       is_visible="true"
       lpeversion="1"
       nodesatellites_param="F,0,0,1,0,0.52916667,0,1 @ F,0,0,1,0,0.52916667,0,1 @ F,0,0,1,0,0.52916667,0,1 @ F,0,0,1,0,0.52916667,0,1 @ F,0,0,1,0,0.52916667,0,1 @ F,0,0,1,0,0.52916667,0,1"
       unit="px"
       method="auto"
       mode="F"
       radius="2"
       chamfer_steps="1"
       flexible="false"
       use_knot_distance="true"
       apply_no_radius="true"
       apply_with_radius="true"
       only_selected="false"
       hide_knots="false" />
  </defs>
  <g
     inkscape:label="Ebene 1"
     inkscape:groupmode="layer"
     id="layer1"
     transform="translate(-92.075026,-137.05417)">
    <g
       id="g7"
       transform="translate(-26.25862,-235.14538)"
       inkscape:export-filename="./glycosylator_new_gray.png"
       inkscape:export-xdpi="300"
       inkscape:export-ydpi="300">
      <g
         id="g2"
         transform="translate(348.11128,22.161005)" />
      <g
         id="g3"
         transform="rotate(-60,-24.188213,71.359104)"
         style="fill:#ffffff">
        <path
           style="fill:#ffffff;stroke-width:0.0846667"
           d="m -227.07352,366.7442 c -1.16248,-2.04238 -2.15027,-3.78809 -2.59585,-4.58626 -0.14218,-0.25468 -0.14561,-0.67441 -0.003,-0.92912 0.44723,-0.79682 1.44756,-2.53288 2.63076,-4.56292 0.14602,-0.25053 0.46832,-0.33271 0.7197,-0.18365 l 0.90731,0.53799 c 0.25138,0.14906 0.33606,0.47469 0.18948,0.72752 -0.89039,1.53571 -1.64333,2.8558 -2.01118,3.52319 -0.13944,0.25296 -0.1348,0.67566 0.003,0.93311 0.70523,1.31368 2.73633,5.00626 3.46723,6.30194 0.14329,0.25401 0.0567,0.34512 -0.20146,0.20811 l -2.37752,-1.26197 c -0.25814,-0.13701 -0.58467,-0.45395 -0.72923,-0.70794 z"
           id="path2"
           sodipodi:nodetypes="csccscc"
           transform="translate(0.02140053,0.0370668)"
           inkscape:original-d="m -226.81169,367.20405 c -1.70399,-2.99155 -3.10394,-5.47084 -3.11099,-5.50953 -0.007,-0.0387 1.40863,-2.50566 3.14595,-5.48216 l 1.81765,1.07777 c -1.397,2.40292 -2.53017,4.4031 -2.51815,4.44484 0.0388,0.1349 3.95477,7.25423 3.97786,7.22723 z"
           inkscape:path-effect="#path-effect13" />
      </g>
      <g
         id="g4"
         transform="translate(348.11128,22.161005)">
        <path
           style="fill:#666666;fill-opacity:1;stroke-width:0.0846667"
           d="m -219.06578,372.66343 -4.11857,-0.0179 a 0.91497628,0.91497628 30.291499 0 1 -0.79107,-0.46211 l -2.57436,-4.51956 c -0.14465,-0.25395 -0.37918,-0.66567 -0.52374,-0.91966 -1.16248,-2.04238 -2.15027,-3.78809 -2.59585,-4.58626 -0.14218,-0.25468 -0.14561,-0.67441 -0.003,-0.92912 0.44723,-0.79682 1.44756,-2.53288 2.63076,-4.56292 0.14602,-0.25053 0.38396,-0.65815 0.53128,-0.91055 l 2.62526,-4.49781 a 0.92157216,0.92157216 150.13556 0 1 0.79592,-0.45701 h 3.32994 4.38829 a 0.52916667,0.52916667 45 0 1 0.52917,0.52917 11.604943,11.604943 92.78181 0 1 -0.053,1.09051 0.56550655,0.56550655 139.19935 0 1 -0.57608,0.49727 l -2.63061,0.001 a 74049.471,74049.471 179.96935 0 1 -1.05834,5.7e-4 l -2.73049,0.001 a 0.92030418,0.92030418 150.07124 0 0 -0.79513,0.45775 l -2.00808,3.454 c -0.14688,0.25265 -0.38507,0.66227 -0.53165,0.9151 -0.89039,1.53571 -1.64333,2.8558 -2.01118,3.52319 -0.13944,0.25296 -0.13152,0.67398 0.0111,0.929 0.74259,1.32759 2.91408,5.11245 3.68341,6.42065 0.14781,0.25134 0.45542,0.60367 0.67919,0.79166 l 0.87115,0.73186 a 1.5056969,1.5056969 20.669954 0 0 0.9342,0.35244 l 1.70036,0.0388 c 0.29218,0.007 0.76588,0.0175 1.05808,0.0231 1.20302,0.0229 2.62303,0.0364 3.60016,0.0344 0.29223,-5.9e-4 0.76602,-0.006 1.05826,-0.009 l 0.84163,-0.009 a 0.93287623,0.93287623 149.81506 0 0 0.79573,-0.46285 l 2.03082,-3.48211 2.56399,-4.39632 a 0.71078325,0.71078325 98.659872 0 0 0.10927,-0.71745 c -0.56246,-0.97863 -1.07531,-1.87875 -1.65011,-2.89067 -0.1443,-0.25403 -0.37813,-0.66606 -0.5225,-0.92016 -0.57798,-1.01735 -1.09505,-1.92419 -1.39529,-2.44745 -0.14543,-0.25345 -0.34014,-0.5811 -0.43274,-0.73307 h 0.69395 1.22312 a 0.91168503,0.91168503 30.13204 0 1 0.79164,0.45949 l 1.55214,2.71723 2.07708,3.63621 a 0.91665799,0.91665799 90.260982 0 1 -0.004,0.91657 l -2.65418,4.54974 a 775056.22,775056.22 120.25792 0 1 -0.53328,0.91416 l -2.65419,4.54974 a 0.90385058,0.90385058 150.60515 0 1 -0.79573,0.44828 l -0.0848,-0.001 c -0.29221,-0.005 -0.76598,-0.0122 -1.05822,-0.015 -1.02223,-0.01 -3.10127,-0.0229 -5.26169,-0.0328 -0.29219,-0.001 -0.52906,-0.002 -0.52905,-0.001 z"
           id="path3"
           sodipodi:nodetypes="ccssscccccccssccsccccssscccccccccc"
           inkscape:original-d="m -218.53662,372.66573 -5.17689,-0.0225 -3.09818,-5.43918 c -1.70399,-2.99155 -3.10394,-5.47084 -3.11099,-5.50953 -0.007,-0.0387 1.40863,-2.50566 3.14595,-5.48216 l 3.15876,-5.41183 h 4.38828 4.38829 v 1.05833 l -0.0999,1.05833 -3.68895,0.002 -3.78883,0.002 -2.54,4.36894 c -1.397,2.40292 -2.53017,4.4031 -2.51815,4.44484 0.0388,0.1349 4.18674,7.36391 4.20983,7.33691 l 1.68149,1.41262 2.75842,0.0629 c 1.51712,0.0346 3.61337,0.0537 4.65833,0.0423 l 1.89991,-0.0206 2.564,-4.39633 2.56399,-4.39632 -0.15732,-0.26034 c -0.0865,-0.14319 -0.94661,-1.651 -1.91131,-3.35068 -0.9647,-1.69969 -1.82945,-3.21416 -1.92167,-3.36551 l -0.16766,-0.27516 h 1.22312 1.22312 l 2.07708,3.63621 2.07708,3.63621 -3.18746,5.4639 -3.18747,5.4639 -1.143,-0.019 c -0.62865,-0.0104 -3.4726,-0.0291 -6.31988,-0.0414 z"
           inkscape:path-effect="#path-effect15" />
        <path
           style="fill:#008bff;fill-opacity:1;stroke-width:0.085;stroke-dasharray:none"
           d="m -213.43559,353.57199 c -0.51839,-0.2972 -0.64384,-0.62257 -0.64368,-1.66946 0,-1.02362 0.11777,-1.36041 0.58389,-1.6718 0.27722,-0.1852 0.35512,-0.19218 2.14203,-0.19218 2.0326,0 2.14392,0.0223 2.55553,0.51145 0.21287,0.25298 0.22175,0.30517 0.22175,1.30285 0,0.93958 -0.0184,1.06693 -0.19218,1.32701 -0.35865,0.53685 -0.56542,0.58391 -2.55949,0.58249 -1.68385,-0.001 -1.79546,-0.0113 -2.10785,-0.19036 z m 3.82659,-0.92571 c 0.0615,-0.0615 0.1016,-0.36018 0.1016,-0.7572 0,-0.92189 0.005,-0.9192 -1.8024,-0.9192 -0.82112,0 -1.49554,0.0372 -1.58983,0.0876 -0.14287,0.0765 -0.16377,0.18274 -0.16377,0.83255 0,0.4097 0.0254,0.77031 0.0565,0.80136 0.1069,0.1069 3.28817,0.0646 3.39795,-0.0452 z"
           id="path4"
           sodipodi:nodetypes="scssssscscsscsccc" />
      </g>
      <path
         style="fill:#008bff;fill-opacity:1;stroke-width:0.0846667"
         d="m -218.32109,372.1083 -4.73865,0.0141 a 0.98759853,0.98759853 28.011931 0 1 -0.82357,-0.43812 l -2.39968,-3.5839 a 0.34471858,0.34471858 113.11315 0 1 0.22677,-0.5313 l 0.36807,-0.0647 c 0.33064,-0.0581 0.73084,0.13367 0.9257,0.40688 0.34962,0.49022 0.67728,0.77566 0.93624,0.94078 0.27962,0.17831 0.69192,-0.0178 0.83404,-0.32161 0.35802,-0.76538 0.95861,-2.14256 1.25584,-2.87972 0.10874,-0.2697 0.0654,-0.70505 -0.0794,-0.95907 -0.17855,-0.31301 -0.43616,-0.7585 -0.72829,-1.25902 -0.14712,-0.25206 -0.38685,-0.6604 -0.53354,-0.91317 -0.28173,-0.48547 -0.52662,-0.91602 -0.69517,-1.22121 -0.14049,-0.25437 -0.14502,-0.68451 -0.008,-0.94195 0.50445,-0.94439 1.69536,-3.03815 2.24659,-3.95042 0.14988,-0.24805 0.50867,-0.35348 0.76466,-0.21409 0.26483,0.1442 0.5895,0.33331 0.8444,0.49163 0.24579,0.15265 0.32634,0.51897 0.18765,0.7761 -0.14263,0.26441 -0.33962,0.62092 -0.56457,1.02105 -0.14259,0.25364 -0.37637,0.66461 -0.52079,0.91868 l -0.53977,0.94958 a 0.9189679,0.9189679 89.680674 0 0 0.005,0.91714 l 0.42372,0.72644 a 232705.37,232705.37 59.746299 0 1 0.53322,0.9142 l 0.42371,0.72644 a 0.9218015,0.9218015 29.888146 0 0 0.79578,0.45738 l 0.86035,4.4e-4 1.91869,10e-4 a 0.90845537,0.90845537 149.80947 0 0 0.79046,-0.45988 l 0.55913,-0.98468 c 0.14431,-0.25414 0.37806,-0.6663 0.5243,-0.91933 0.2328,-0.4028 0.44261,-0.75591 0.60086,-1.01233 0.15209,-0.24646 0.51307,-0.33988 0.77044,-0.2018 0.24722,0.13263 0.65347,0.35815 0.90022,0.5147 0.22428,0.14231 0.22651,0.55506 0.0855,0.81097 -0.20396,0.37002 -0.51531,0.92701 -0.87024,1.55623 -0.14351,0.2544 -0.37696,0.66658 -0.52096,0.92089 l -0.80713,1.42542 a 0.91798916,0.91798916 149.48132 0 1 -0.78988,0.46562 l -1.43784,0.014 -2.49614,0.0243 a 0.83778784,0.83778784 147.16476 0 0 -0.75183,0.48518 l -0.53657,1.1566 a 586800.97,586800.97 114.88723 0 0 -0.44538,0.96006 l -0.40059,0.8635 a 0.64493847,0.64493847 62.002542 0 0 0.48285,0.9082 l 1.92709,0.30929 a 1.1560372,1.1560372 41.8789 0 1 0.93155,0.83521 1.3734992,1.3734992 74.68747 0 1 0.0938,0.34266 z"
         id="path5"
         sodipodi:nodetypes="ccccsssscsscccccssssscccccccc"
         transform="rotate(0.38575367,-3344.592,52147.835)"
         inkscape:original-d="m -217.79193,372.10672 -5.79697,0.0173 -2.9885,-4.4633 1.48793,-0.26152 c 0.93145,1.62033 1.81167,1.68483 1.82207,1.67267 0.15595,-0.18236 1.74394,-3.82372 1.70816,-3.91697 -0.0269,-0.0702 -0.59022,-1.05049 -1.2517,-2.17834 -0.66148,-1.12784 -1.2027,-2.09357 -1.2027,-2.14606 0,-0.14372 2.68413,-4.86139 2.76722,-4.86371 0.13465,-0.004 1.74834,0.93844 1.74834,1.02082 0,0.0451 -0.47825,0.92333 -1.06277,1.95164 l -1.06277,1.86966 0.95694,1.64064 0.95693,1.64064 1.91869,10e-4 1.91869,0.001 1.08171,-1.905 c 0.59493,-1.04775 1.11645,-1.905 1.15893,-1.905 0.0425,0 0.45651,0.21474 0.92007,0.47722 0.64603,0.36578 0.83073,0.50911 0.79098,0.61383 -0.0285,0.0751 -0.64973,1.19247 -1.38046,2.48297 l -1.32861,2.34636 -2.49612,0.0243 -2.49614,0.0243 -0.98195,2.11666 -0.98195,2.11667 3.50311,0.56223 0.29086,1.05884 z"
         inkscape:path-effect="#path-effect17" />
      <g
         id="g6"
         transform="rotate(-60,-24.188213,71.359104)"
         style="fill:#ffffff">
        <path
           style="fill:#666666;fill-opacity:1;stroke-width:0.0846667"
           d="m -227.07352,366.7442 c -1.16248,-2.04238 -2.15027,-3.78809 -2.59585,-4.58626 -0.14218,-0.25468 -0.14561,-0.67441 -0.003,-0.92912 0.44723,-0.79682 1.44756,-2.53288 2.63076,-4.56292 0.14602,-0.25053 0.46832,-0.33271 0.7197,-0.18365 l 0.90731,0.53799 c 0.25138,0.14906 0.33606,0.47469 0.18948,0.72752 -0.89039,1.53571 -1.64333,2.8558 -2.01118,3.52319 -0.13944,0.25296 -0.1348,0.67566 0.003,0.93311 0.70523,1.31368 2.73633,5.00626 3.46723,6.30194 0.14329,0.25401 0.0567,0.34512 -0.20146,0.20811 l -2.37752,-1.26197 c -0.25814,-0.13701 -0.58467,-0.45395 -0.72923,-0.70794 z"
           id="path6"
           sodipodi:nodetypes="csccscc"
           transform="translate(0.02140053,0.0370668)"
           inkscape:original-d="m -226.81169,367.20405 c -1.70399,-2.99155 -3.10394,-5.47084 -3.11099,-5.50953 -0.007,-0.0387 1.40863,-2.50566 3.14595,-5.48216 l 1.81765,1.07777 c -1.397,2.40292 -2.53017,4.4031 -2.51815,4.44484 0.0388,0.1349 3.95477,7.25423 3.97786,7.22723 z"
           inkscape:path-effect="#path-effect19" />
      </g>
    </g>
    <rect
       style="fill:#008bff;fill-opacity:1;stroke:none;stroke-width:0.3;stroke-linejoin:round;stroke-dasharray:none;stroke-opacity:1"
       id="rect10"
       width="4.3436942"
       height="2.1316278"
       x="108.37795"
       y="137.8611" />
  </g>
</svg>
